ply
format ascii 1.0
comment Created by Blender 2.80 (sub 75) - www.blender.org, source file: ''
element vertex 128
property float x
property float y
property float z
element face 248
property list uchar uint vertex_indices
end_header
0.000000 1.000000 -2.046840
0.000000 1.000000 2.046840
0.195090 0.980785 2.046840
0.195090 0.980785 -2.046840
0.382683 0.923880 2.046840
0.382683 0.923880 -2.046840
0.555570 0.831470 2.046840
0.555570 0.831470 -2.046840
0.707107 0.707107 2.046840
0.707107 0.707107 -2.046840
0.831470 0.555570 2.046840
0.831470 0.555570 -2.046840
0.923880 0.382683 2.046840
0.923880 0.382683 -2.046840
0.980785 0.195090 2.046840
0.980785 0.195090 -2.046840
1.000000 0.000000 2.046840
1.000000 0.000000 -2.046840
0.980785 -0.195090 2.046840
0.980785 -0.195090 -2.046840
0.923880 -0.382683 2.046840
0.923880 -0.382683 -2.046840
0.831470 -0.555570 2.046840
0.831470 -0.555570 -2.046840
0.707107 -0.707107 2.046840
0.707107 -0.707107 -2.046840
0.555570 -0.831470 2.046840
0.555570 -0.831470 -2.046840
0.382683 -0.923880 2.046840
0.382683 -0.923880 -2.046840
0.195090 -0.980785 2.046840
0.195090 -0.980785 -2.046840
-0.000000 -1.000000 2.046840
-0.000000 -1.000000 -2.046840
-0.195091 -0.980785 2.046840
-0.195091 -0.980785 -2.046840
-0.382684 -0.923879 2.046840
-0.382684 -0.923879 -2.046840
-0.555571 -0.831469 2.046840
-0.555571 -0.831469 -2.046840
-0.707107 -0.707106 2.046840
-0.707107 -0.707106 -2.046840
-0.831470 -0.555570 2.046840
-0.831470 -0.555570 -2.046840
-0.923880 -0.382683 2.046840
-0.923880 -0.382683 -2.046840
-0.980785 -0.195089 2.046840
-0.980785 -0.195089 -2.046840
-1.000000 0.000001 2.046840
-1.000000 0.000001 -2.046840
-0.980785 0.195091 2.046840
-0.980785 0.195091 -2.046840
-0.923879 0.382684 2.046840
-0.923879 0.382684 -2.046840
-0.831469 0.555571 2.046840
-0.831469 0.555571 -2.046840
-0.707106 0.707108 2.046840
-0.707106 0.707108 -2.046840
-0.555569 0.831470 2.046840
-0.555569 0.831470 -2.046840
-0.382682 0.923880 2.046840
-0.382682 0.923880 -2.046840
-0.195089 0.980786 2.046840
-0.195089 0.980786 -2.046840
0.000000 0.785086 -1.730741
0.000000 0.785086 1.730741
0.153163 0.770001 1.730741
0.153163 0.770001 -1.730741
0.300440 0.725325 1.730741
0.300440 0.725325 -1.730741
0.436171 0.652775 1.730741
0.436171 0.652775 -1.730741
0.555140 0.555140 1.730741
0.555140 0.555140 -1.730741
0.652775 0.436171 1.730741
0.652775 0.436171 -1.730741
0.725325 0.300440 1.730741
0.725325 0.300440 -1.730741
0.770001 0.153163 1.730741
0.770001 0.153163 -1.730741
0.785086 0.000000 1.730741
0.785086 0.000000 -1.730741
0.770001 -0.153163 1.730741
0.770001 -0.153163 -1.730741
0.725325 -0.300439 1.730741
0.725325 -0.300439 -1.730741
0.652775 -0.436171 1.730741
0.652775 -0.436171 -1.730741
0.555140 -0.555140 1.730741
0.555140 -0.555140 -1.730741
0.436171 -0.652775 1.730741
0.436171 -0.652775 -1.730741
0.300439 -0.725325 1.730741
0.300439 -0.725325 -1.730741
0.153163 -0.770001 1.730741
0.153163 -0.770001 -1.730741
-0.000000 -0.785086 1.730741
-0.000000 -0.785086 -1.730741
-0.153163 -0.770001 1.730741
-0.153163 -0.770001 -1.730741
-0.300440 -0.725325 1.730741
-0.300440 -0.725325 -1.730741
-0.436171 -0.652775 1.730741
-0.436171 -0.652775 -1.730741
-0.555140 -0.555139 1.730741
-0.555140 -0.555139 -1.730741
-0.652776 -0.436170 1.730741
-0.652776 -0.436170 -1.730741
-0.725325 -0.300439 1.730741
-0.725325 -0.300439 -1.730741
-0.770001 -0.153162 1.730741
-0.770001 -0.153162 -1.730741
-0.785086 0.000001 1.730741
-0.785086 0.000001 -1.730741
-0.770001 0.153164 1.730741
-0.770001 0.153164 -1.730741
-0.725325 0.300440 1.730741
-0.725325 0.300440 -1.730741
-0.652775 0.436171 1.730741
-0.652775 0.436171 -1.730741
-0.555139 0.555140 1.730741
-0.555139 0.555140 -1.730741
-0.436170 0.652776 1.730741
-0.436170 0.652776 -1.730741
-0.300438 0.725326 1.730741
-0.300438 0.725326 -1.730741
-0.153162 0.770001 1.730741
-0.153162 0.770001 -1.730741
3 0 1 2
3 0 2 3
3 3 2 4
3 3 4 5
3 5 4 6
3 5 6 7
3 7 6 8
3 7 8 9
3 9 8 10
3 9 10 11
3 11 10 12
3 11 12 13
3 13 12 14
3 13 14 15
3 15 14 16
3 15 16 17
3 17 16 18
3 17 18 19
3 19 18 20
3 19 20 21
3 21 20 22
3 21 22 23
3 23 22 24
3 23 24 25
3 25 24 26
3 25 26 27
3 27 26 28
3 27 28 29
3 29 28 30
3 29 30 31
3 31 30 32
3 31 32 33
3 33 32 34
3 33 34 35
3 35 34 36
3 35 36 37
3 37 36 38
3 37 38 39
3 39 38 40
3 39 40 41
3 41 40 42
3 41 42 43
3 43 42 44
3 43 44 45
3 45 44 46
3 45 46 47
3 47 46 48
3 47 48 49
3 49 48 50
3 49 50 51
3 51 50 52
3 51 52 53
3 53 52 54
3 53 54 55
3 55 54 56
3 55 56 57
3 57 56 58
3 57 58 59
3 59 58 60
3 59 60 61
3 4 2 1
3 1 62 60
3 60 58 56
3 56 54 52
3 52 50 48
3 48 46 44
3 44 42 40
3 40 38 36
3 36 34 32
3 32 30 28
3 28 26 24
3 24 22 20
3 20 18 16
3 16 14 12
3 12 10 8
3 8 6 4
3 4 1 60
3 60 56 52
3 52 48 44
3 44 40 36
3 36 32 28
3 28 24 20
3 20 16 12
3 12 8 4
3 4 60 52
3 52 44 36
3 36 28 20
3 20 12 4
3 4 52 36
3 36 20 4
3 61 60 62
3 61 62 63
3 63 62 1
3 63 1 0
3 63 0 3
3 3 5 7
3 7 9 11
3 11 13 15
3 15 17 19
3 19 21 23
3 23 25 27
3 27 29 31
3 31 33 35
3 35 37 39
3 39 41 43
3 43 45 47
3 47 49 51
3 51 53 55
3 55 57 59
3 59 61 63
3 63 3 7
3 7 11 15
3 15 19 23
3 23 27 31
3 31 35 39
3 39 43 47
3 47 51 55
3 55 59 63
3 63 7 15
3 15 23 31
3 31 39 47
3 47 55 63
3 63 15 31
3 31 47 63
3 64 65 66
3 64 66 67
3 67 66 68
3 67 68 69
3 69 68 70
3 69 70 71
3 71 70 72
3 71 72 73
3 73 72 74
3 73 74 75
3 75 74 76
3 75 76 77
3 77 76 78
3 77 78 79
3 79 78 80
3 79 80 81
3 81 80 82
3 81 82 83
3 83 82 84
3 83 84 85
3 85 84 86
3 85 86 87
3 87 86 88
3 87 88 89
3 89 88 90
3 89 90 91
3 91 90 92
3 91 92 93
3 93 92 94
3 93 94 95
3 95 94 96
3 95 96 97
3 97 96 98
3 97 98 99
3 99 98 100
3 99 100 101
3 101 100 102
3 101 102 103
3 103 102 104
3 103 104 105
3 105 104 106
3 105 106 107
3 107 106 108
3 107 108 109
3 109 108 110
3 109 110 111
3 111 110 112
3 111 112 113
3 113 112 114
3 113 114 115
3 115 114 116
3 115 116 117
3 117 116 118
3 117 118 119
3 119 118 120
3 119 120 121
3 121 120 122
3 121 122 123
3 123 122 124
3 123 124 125
3 68 66 65
3 65 126 124
3 124 122 120
3 120 118 116
3 116 114 112
3 112 110 108
3 108 106 104
3 104 102 100
3 100 98 96
3 96 94 92
3 92 90 88
3 88 86 84
3 84 82 80
3 80 78 76
3 76 74 72
3 72 70 68
3 68 65 124
3 124 120 116
3 116 112 108
3 108 104 100
3 100 96 92
3 92 88 84
3 84 80 76
3 76 72 68
3 68 124 116
3 116 108 100
3 100 92 84
3 84 76 68
3 68 116 100
3 100 84 68
3 125 124 126
3 125 126 127
3 127 126 65
3 127 65 64
3 127 64 67
3 67 69 71
3 71 73 75
3 75 77 79
3 79 81 83
3 83 85 87
3 87 89 91
3 91 93 95
3 95 97 99
3 99 101 103
3 103 105 107
3 107 109 111
3 111 113 115
3 115 117 119
3 119 121 123
3 123 125 127
3 127 67 71
3 71 75 79
3 79 83 87
3 87 91 95
3 95 99 103
3 103 107 111
3 111 115 119
3 119 123 127
3 127 71 79
3 79 87 95
3 95 103 111
3 111 119 127
3 127 79 95
3 95 111 127
